# Blender 5.1.2
# www.blender.org
o Trunk
v 0.721252 0.215075 -0.297502
v 1.105577 0.000000 -0.458298
v 0.721252 0.215075 0.000000
v 1.105577 0.000000 0.000000
v 0.296777 0.215075 -0.721252
v 0.457315 0.000000 -1.112299
v 0.000000 0.215075 -0.721252
v 0.000000 0.000000 -1.112299
v 0.399920 0.650206 -0.169360
v 0.399920 0.650206 0.000000
v 0.168635 0.650206 -0.402395
v 0.000000 0.650206 -0.402395
v 0.219607 18.848297 -0.083756
v 0.219607 18.848297 0.000000
v 0.087786 18.848297 -0.217327
v 0.000000 18.848297 -0.217327
v -0.721252 0.215075 -0.297502
v -1.105577 0.000000 -0.458298
v -0.721252 0.215075 0.000000
v -1.105577 0.000000 0.000000
v -0.296777 0.215075 -0.721252
v -0.457315 0.000000 -1.112299
v -0.399920 0.650206 -0.169360
v -0.399920 0.650206 0.000000
v -0.168635 0.650206 -0.402395
v -0.219607 18.848297 -0.083756
v -0.219607 18.848297 0.000000
v -0.087786 18.848297 -0.217327
v 0.721252 0.215075 0.297502
v 1.105577 0.000000 0.458298
v 0.296777 0.215075 0.721252
v 0.457315 0.000000 1.112299
v 0.000000 0.215075 0.721252
v 0.000000 0.000000 1.112299
v 0.399920 0.650206 0.169360
v 0.168635 0.650206 0.402395
v 0.000000 0.650206 0.402395
v 0.219607 18.848297 0.083756
v 0.087786 18.848297 0.217327
v 0.000000 18.848297 0.217327
v -0.721252 0.215075 0.297502
v -1.105577 0.000000 0.458298
v -0.296777 0.215075 0.721252
v -0.457315 0.000000 1.112299
v -0.399920 0.650206 0.169360
v -0.168635 0.650206 0.402395
v -0.219607 18.848297 0.083756
v -0.087786 18.848297 0.217327
vn -0.0000 0.8762 -0.4819
vn 0.4883 0.8726 -0.0000
vn 0.3434 0.8753 -0.3404
vn 0.5706 0.5897 -0.5716
vn -0.0000 0.5911 -0.8066
vn 0.8044 0.5940 -0.0000
vn 0.7117 0.0104 -0.7024
vn -0.0000 0.0102 -0.9999
vn 1.0000 0.0099 -0.0000
vn -0.4883 0.8726 -0.0000
vn -0.3434 0.8753 -0.3404
vn -0.5706 0.5897 -0.5716
vn -0.8044 0.5940 -0.0000
vn -0.7097 0.0103 -0.7044
vn -1.0000 0.0099 -0.0000
vn -0.0000 0.8762 0.4819
vn 0.3434 0.8753 0.3404
vn 0.5706 0.5897 0.5716
vn -0.0000 0.5911 0.8066
vn 0.7097 0.0103 0.7044
vn -0.0000 0.0102 0.9999
vn -0.3434 0.8753 0.3404
vn -0.5706 0.5897 0.5716
vn -0.7117 0.0104 0.7024
vn 0.3443 0.8732 -0.3449
vn 0.5746 0.5871 -0.5703
vn 0.7097 0.0103 -0.7044
vn -0.3443 0.8732 -0.3449
vn -0.5746 0.5871 -0.5703
vn -0.7117 0.0104 -0.7024
vn 0.3443 0.8732 0.3449
vn 0.5746 0.5871 0.5703
vn 0.7117 0.0104 0.7024
vn -0.3443 0.8732 0.3449
vn -0.5746 0.5871 0.5703
vn -0.7097 0.0103 0.7044
vt 0.098475 0.125893
vt 0.080092 0.138509
vt 0.084123 0.119807
vt 0.055328 0.136154
vt 0.036054 0.128180
vt 0.050455 0.119120
vt 0.064894 0.164611
vt 0.091997 0.140222
vt 0.081341 0.167225
vt 0.044756 0.141883
vt 0.051403 0.160384
vt 0.085917 0.722209
vt 0.071806 0.723795
vt 0.097094 0.167755
vt 0.051403 0.165384
vt 0.057182 0.723817
vt 0.097094 0.159755
vt 0.098475 0.722385
s 0
f 8/1/1 5/2/1 6/3/1
f 1/4/2 4/5/2 2/6/2
f 5/2/3 2/6/3 6/3/3
f 5/2/4 9/7/4 1/4/4
f 7/8/5 11/9/5 5/2/5
f 3/10/6 9/7/6 10/11/6
f 9/7/7 15/12/7 13/13/7
f 12/14/8 15/12/8 11/9/8
f 10/15/9 13/13/9 14/16/9
f 8/1/1 21/2/1 7/8/1
f 20/5/10 17/4/10 18/6/10
f 18/6/11 21/2/11 22/3/11
f 23/7/12 21/2/12 17/4/12
f 25/9/5 7/8/5 21/2/5
f 19/10/13 23/7/13 17/4/13
f 23/7/14 28/12/14 25/9/14
f 28/12/8 12/14/8 25/9/8
f 24/15/15 26/13/15 23/7/15
f 34/1/16 31/2/16 33/8/16
f 4/5/2 29/4/2 30/6/2
f 30/6/17 31/2/17 32/3/17
f 35/7/18 31/2/18 29/4/18
f 36/9/19 33/8/19 31/2/19
f 3/10/6 35/7/6 29/4/6
f 35/7/20 39/12/20 36/9/20
f 39/12/21 37/14/21 36/9/21
f 10/15/9 38/13/9 35/7/9
f 34/1/16 43/2/16 44/3/16
f 41/4/10 20/5/10 42/6/10
f 43/2/22 42/6/22 44/3/22
f 43/2/23 45/7/23 41/4/23
f 33/8/19 46/9/19 43/2/19
f 19/10/13 45/7/13 24/11/13
f 45/7/24 48/12/24 47/13/24
f 37/14/21 48/12/21 46/9/21
f 24/15/15 47/13/15 27/16/15
f 8/1/1 7/8/1 5/2/1
f 1/4/2 3/10/2 4/5/2
f 5/2/25 1/4/25 2/6/25
f 5/2/26 11/9/26 9/7/26
f 7/8/5 12/17/5 11/9/5
f 3/10/6 1/4/6 9/7/6
f 9/7/27 11/9/27 15/12/27
f 12/14/8 16/18/8 15/12/8
f 10/15/9 9/7/9 13/13/9
f 8/1/1 22/3/1 21/2/1
f 20/5/10 19/10/10 17/4/10
f 18/6/28 17/4/28 21/2/28
f 23/7/29 25/9/29 21/2/29
f 25/9/5 12/17/5 7/8/5
f 19/10/13 24/11/13 23/7/13
f 23/7/30 26/13/30 28/12/30
f 28/12/8 16/18/8 12/14/8
f 24/15/15 27/16/15 26/13/15
f 34/1/16 32/3/16 31/2/16
f 4/5/2 3/10/2 29/4/2
f 30/6/31 29/4/31 31/2/31
f 35/7/32 36/9/32 31/2/32
f 36/9/19 37/17/19 33/8/19
f 3/10/6 10/11/6 35/7/6
f 35/7/33 38/13/33 39/12/33
f 39/12/21 40/18/21 37/14/21
f 10/15/9 14/16/9 38/13/9
f 34/1/16 33/8/16 43/2/16
f 41/4/10 19/10/10 20/5/10
f 43/2/34 41/4/34 42/6/34
f 43/2/35 46/9/35 45/7/35
f 33/8/19 37/17/19 46/9/19
f 19/10/13 41/4/13 45/7/13
f 45/7/36 46/9/36 48/12/36
f 37/14/21 40/18/21 48/12/21
f 24/15/15 45/7/15 47/13/15
o Plane
v -0.346284 14.198125 -0.000000
v 0.346284 14.198125 0.000000
v -0.346283 14.198125 -2.512477
v 0.346284 14.198125 -2.512477
v 0.000000 14.689320 0.000000
v 0.000001 14.689320 -2.512477
vn 0.8173 0.5762 -0.0000
vn -0.8173 0.5762 -0.0000
vt 0.695420 0.444286
vt 0.846278 0.474282
vt 0.695290 0.474282
vt 0.846148 0.504277
vt 0.695673 0.504387
vt 0.845894 0.444177
s 0
f 50/19/37 54/20/37 53/21/37
f 53/21/38 51/22/38 49/23/38
f 50/19/37 52/24/37 54/20/37
f 53/21/38 54/20/38 51/22/38
o Plane.001
v 0.098594 13.313398 0.481871
v 0.098594 13.313398 -0.481871
v -2.855829 12.792454 0.481871
v -2.855829 12.792454 -0.481871
v 0.000000 14.269554 0.000000
v -2.954423 13.748610 -0.000000
vn -0.0780 0.4423 -0.8935
vn -0.0780 0.4423 0.8935
vt 0.695420 0.328836
vt 0.880610 0.375849
vt 0.695290 0.375849
vt 0.695673 0.423034
vt 0.880481 0.422862
vt 0.880227 0.328664
s 0
f 56/25/39 60/26/39 59/27/39
f 55/28/40 60/26/40 57/29/40
f 56/25/39 58/30/39 60/26/39
f 55/28/40 59/27/40 60/26/40
o Plane.002
v -0.481871 13.733164 -0.098594
v 0.481871 13.733164 -0.098595
v -0.481870 13.212219 2.855829
v 0.481872 13.212219 2.855829
v 0.000000 14.689320 0.000000
v 0.000001 14.168375 2.954423
vn 0.8935 0.4423 0.0780
vn -0.8935 0.4423 0.0780
vt 0.695420 0.241137
vt 0.880610 0.278485
vt 0.695290 0.278485
vt 0.695673 0.315971
vt 0.880481 0.315834
vt 0.880227 0.241000
s 0
f 62/31/41 65/33/41 66/32/41
f 61/34/42 63/35/42 66/32/42
f 62/31/41 66/32/41 64/36/41
f 61/34/42 66/32/42 65/33/42
o Plane.003
v -0.102968 13.865432 -0.346284
v -0.102968 13.865432 0.346284
v 2.241363 13.452064 -0.346284
v 2.241363 13.452064 0.346284
v 0.000000 14.449393 0.000000
v 2.344331 14.036024 -0.000000
vn 0.0876 0.4966 0.8635
vn 0.0876 0.4966 -0.8635
vt 0.695196 0.147324
vt 0.858417 0.180391
vt 0.695056 0.180391
vt 0.858277 0.213459
vt 0.695471 0.213580
vt 0.858002 0.147203
s 0
f 68/37/43 72/38/43 71/39/43
f 71/39/44 69/40/44 67/41/44
f 68/37/43 70/42/43 72/38/43
f 71/39/44 72/38/44 69/40/44
o Plane.004
v 0.197437 14.806646 0.302545
v -0.000051 14.806646 -0.361268
v -2.049562 14.393278 0.971040
v -2.247050 14.393278 0.307227
v 0.000000 15.390608 0.000000
v -2.246999 14.977239 0.668495
vn -0.3302 0.4966 -0.8027
vn 0.1623 0.4966 0.8527
vt 0.695196 0.147324
vt 0.858417 0.180391
vt 0.695056 0.180391
vt 0.858277 0.213459
vt 0.695471 0.213580
vt 0.858002 0.147203
s 0
f 74/43/45 78/44/45 77/45/45
f 77/45/46 75/46/46 73/47/46
f 74/43/45 76/48/45 78/44/45
f 77/45/46 78/44/46 75/46/46
o Plane.005
v -0.348811 14.434452 0.346773
v 0.456982 14.434452 -0.181902
v -1.969501 13.913507 -2.123446
v -1.163708 13.913507 -2.652120
v 0.000000 15.390608 0.000000
v -1.620690 14.869663 -2.470219
vn 0.7043 0.4423 -0.5553
vn -0.7898 0.4423 0.4249
vt 0.695420 0.241137
vt 0.880610 0.278485
vt 0.695290 0.278485
vt 0.695673 0.315971
vt 0.880481 0.315834
vt 0.880227 0.241000
s 0
f 80/49/47 84/50/47 83/51/47
f 79/52/48 84/50/48 81/53/48
f 80/49/47 82/54/47 84/50/47
f 79/52/48 83/51/48 84/50/48
o Plane.006
v 0.481976 14.984980 0.098082
v -0.404718 14.984980 -0.279506
v -0.675551 14.464035 2.816308
v -1.562245 14.464035 2.438719
v 0.000000 15.941135 0.000000
v -1.157527 15.420191 2.718225
vn -0.8526 0.4423 -0.2783
vn 0.7915 0.4423 0.4218
vt 0.695420 0.328836
vt 0.880610 0.375849
vt 0.695290 0.375849
vt 0.695673 0.423034
vt 0.880481 0.422862
vt 0.880227 0.328664
s 0
f 86/55/49 90/56/49 89/57/49
f 85/58/50 90/56/50 87/59/50
f 86/55/49 88/60/49 90/56/49
f 85/58/50 89/57/50 90/56/50
o Plane.007
v 0.242741 14.906876 -0.261275
v -0.336321 14.906876 0.118643
v 1.600056 14.470588 1.807514
v 1.020995 14.470588 2.187432
v 0.000000 15.390608 0.000000
v 1.357315 14.954321 2.068789
vn -0.6285 0.5674 0.5320
vn 0.7383 0.5674 -0.3647
vt 0.695420 0.444286
vt 0.846278 0.474282
vt 0.695290 0.474282
vt 0.846148 0.504277
vt 0.695673 0.504387
vt 0.845894 0.444177
s 0
f 92/61/51 96/62/51 95/63/51
f 95/63/52 93/64/52 91/65/52
f 92/61/51 94/66/51 96/62/51
f 95/63/52 96/62/52 93/64/52
o Plane.008
v 0.321017 15.667732 0.155357
v -0.212136 15.667732 -0.286681
v -1.258234 15.231445 2.060130
v -1.791387 15.231445 1.618092
v 0.000000 16.151464 0.000000
v -1.579251 15.715178 1.904773
vn -0.6930 0.5674 -0.4446
vn 0.5653 0.5674 0.5987
vt 0.695420 0.444286
vt 0.846278 0.474282
vt 0.695290 0.474282
vt 0.846148 0.504277
vt 0.695673 0.504387
vt 0.845894 0.444177
s 0
f 98/67/53 102/68/53 101/69/53
f 101/69/54 99/70/54 97/71/54
f 98/67/53 100/72/53 102/68/53
f 101/69/54 102/68/54 99/70/54
o Plane.009
v 0.231659 15.195309 -0.433883
v -0.383459 15.195309 0.308026
v 2.506036 14.674364 1.451807
v 1.890917 14.674364 2.193716
v 0.000000 16.151464 0.000000
v 2.274377 15.630520 1.885690
vn -0.5103 0.4423 0.7376
vn 0.6303 0.4423 -0.6381
vt 0.695420 0.328836
vt 0.880610 0.375849
vt 0.695290 0.375849
vt 0.695673 0.423034
vt 0.880481 0.422862
vt 0.880227 0.328664
s 0
f 104/73/55 108/74/55 107/75/55
f 103/76/56 108/74/56 105/77/56
f 104/73/55 106/78/55 108/74/55
f 103/76/56 107/75/56 108/74/56
o Plane.010
v -0.465903 13.193599 -0.157654
v 0.366540 13.193599 0.327978
v 1.022836 12.672654 -2.709569
v 1.855279 12.672654 -2.223937
v 0.000000 14.149755 0.000000
v 1.488740 13.628810 -2.551915
vn 0.8111 0.4423 0.3829
vn -0.7325 0.4423 -0.5176
vt 0.695420 0.241137
vt 0.880610 0.278485
vt 0.695290 0.278485
vt 0.695673 0.315971
vt 0.880481 0.315834
vt 0.880227 0.241000
s 0
f 110/79/57 114/80/57 113/81/57
f 109/82/58 114/80/58 111/83/58
f 110/79/57 112/84/57 114/80/57
f 109/82/58 113/81/58 114/80/58
o Plane.011
v -0.141752 15.567503 0.332297
v 0.300286 15.567503 -0.200856
v -1.946467 15.154135 -1.163997
v -1.504429 15.154135 -1.697149
v 0.000000 16.151464 0.000000
v -1.804715 15.738095 -1.496293
vn 0.4837 0.4966 -0.7207
vn -0.6186 0.4966 0.6089
vt 0.695196 0.147324
vt 0.858417 0.180391
vt 0.695056 0.180391
vt 0.858277 0.213459
vt 0.695471 0.213580
vt 0.858002 0.147203
s 0
f 116/85/59 120/86/59 119/87/59
f 119/87/60 117/88/60 115/89/60
f 116/85/59 118/90/59 120/86/59
f 119/87/60 120/86/60 117/88/60
o Plane.012
v -0.199395 16.445364 -0.301258
v 0.002393 16.445364 0.361260
v 2.043223 16.031996 -0.984308
v 2.245011 16.031996 -0.321789
v 0.000000 17.029325 0.000000
v 2.242617 16.615957 -0.683050
vn 0.3354 0.4966 0.8006
vn -0.1678 0.4966 -0.8516
vt 0.695196 0.147324
vt 0.858417 0.180391
vt 0.695056 0.180391
vt 0.858277 0.213459
vt 0.695471 0.213580
vt 0.858002 0.147203
s 0
f 122/91/61 126/92/61 125/93/61
f 125/93/62 123/94/62 121/95/62
f 122/91/61 124/96/61 126/92/61
f 125/93/62 126/92/62 123/94/62
o Plane.013
v 0.481727 16.073170 -0.099295
v -0.482014 16.073170 -0.097893
v 0.486024 15.552225 2.855125
v -0.477717 15.552225 2.856527
v 0.000000 17.029325 0.000000
v 0.004297 16.508381 2.954420
vn -0.8934 0.4423 0.0793
vn 0.8936 0.4423 0.0767
vt 0.695420 0.241137
vt 0.880610 0.278485
vt 0.695290 0.278485
vt 0.695673 0.315971
vt 0.880481 0.315834
vt 0.880227 0.241000
s 0
f 128/97/63 132/98/63 131/99/63
f 127/100/64 132/98/64 129/101/64
f 128/97/63 130/102/63 132/98/63
f 127/100/64 131/99/64 132/98/64
o Plane.014
v 0.155765 16.091875 0.503070
v 0.266360 16.091875 -0.454306
v -2.695975 15.220637 0.173639
v -2.585380 15.220637 -0.783737
v 0.000000 17.029325 0.000000
v -2.851740 16.158089 -0.329431
vn -0.0270 0.4297 -0.9026
vn -0.2321 0.4297 0.8726
vt 0.695420 0.328836
vt 0.880610 0.375849
vt 0.695290 0.375849
vt 0.695673 0.423034
vt 0.880481 0.422862
vt 0.880227 0.328664
s 0
f 134/103/65 138/104/65 137/105/65
f 133/106/66 138/104/66 135/107/66
f 134/103/65 136/108/65 138/104/65
f 133/106/66 137/105/66 138/104/66
o Plane.015
v -0.306408 16.545593 0.182489
v 0.356111 16.545593 -0.019300
v -1.027328 16.109306 -2.184464
v -0.364810 16.109306 -2.386253
v 0.000000 17.029325 0.000000
v -0.720921 16.593039 -2.366953
vn 0.7527 0.5674 -0.3338
vn -0.8110 0.5674 0.1424
vt 0.695420 0.444286
vt 0.846278 0.474282
vt 0.695290 0.474282
vt 0.846148 0.504277
vt 0.695673 0.504387
vt 0.845894 0.444177
s 0
f 140/109/67 144/110/67 143/111/67
f 143/111/68 141/112/68 139/113/68
f 140/109/67 142/114/67 144/110/67
f 143/111/68 144/110/68 141/112/68
o Plane.016
v 0.000589 12.744331 0.361268
v 0.196901 12.744331 -0.302894
v -2.247591 12.330963 -0.303246
v -2.051279 12.330963 -0.967408
v 0.000000 13.328293 0.000000
v -2.248179 12.914924 -0.664514
vn 0.1608 0.4966 -0.8529
vn -0.3288 0.4966 0.8033
vt 0.695196 0.147324
vt 0.858417 0.180391
vt 0.695056 0.180391
vt 0.858277 0.213459
vt 0.695471 0.213580
vt 0.858002 0.147203
s 0
f 146/115/69 150/116/69 149/117/69
f 149/117/70 147/118/70 145/119/70
f 146/115/69 148/120/69 150/116/69
f 149/117/70 150/116/70 147/118/70
o Plane.017
v 0.358352 14.117342 -0.336904
v -0.197227 14.117342 0.450580
v -2.055740 13.596397 -2.040072
v -2.611318 13.596397 -1.252588
v 0.000000 15.073498 0.000000
v -2.414092 14.552553 -1.703167
vn -0.5788 0.4423 0.6851
vn 0.4514 0.4423 -0.7750
vt 0.695420 0.241137
vt 0.880610 0.278485
vt 0.695290 0.278485
vt 0.695673 0.315971
vt 0.880481 0.315834
vt 0.880227 0.241000
s 0
f 152/121/71 155/123/71 156/122/71
f 151/124/72 153/125/72 156/122/72
f 152/121/71 156/122/71 154/126/71
f 151/124/72 156/122/72 155/123/72
o Plane.018
v 0.231659 13.966632 -0.433883
v -0.383459 13.966632 0.308026
v 2.506036 13.445687 1.451807
v 1.890917 13.445687 2.193716
v 0.000000 14.922788 0.000000
v 2.274377 14.401843 1.885690
vn -0.5103 0.4423 0.7376
vn 0.6303 0.4423 -0.6381
vt 0.695420 0.328836
vt 0.880610 0.375849
vt 0.695290 0.375849
vt 0.695673 0.423034
vt 0.880481 0.422862
vt 0.880227 0.328664
s 0
f 158/127/73 162/128/73 161/129/73
f 157/130/74 162/128/74 159/131/74
f 158/127/73 160/132/73 162/128/73
f 157/130/74 161/129/74 162/128/74
o Plane.019
v 0.341129 14.439054 0.104014
v -0.253793 14.439054 -0.250553
v -0.925618 14.002768 2.229466
v -1.520539 14.002768 1.874899
v 0.000000 14.922788 0.000000
v -1.266746 14.486501 2.125452
vn -0.7533 0.5674 -0.3325
vn 0.6509 0.5674 0.5044
vt 0.695420 0.444286
vt 0.846278 0.474282
vt 0.695290 0.474282
vt 0.846148 0.504277
vt 0.695673 0.504387
vt 0.845894 0.444177
s 0
f 164/133/75 168/134/75 167/135/75
f 167/135/76 165/136/76 163/137/76
f 164/133/75 166/138/75 168/134/75
f 167/135/76 168/134/76 165/136/76
o Plane.020
v -0.222294 13.548620 0.278878
v 0.326389 13.548620 -0.143729
v -1.732126 13.112333 -1.681376
v -1.183444 13.112333 -2.103984
v 0.000000 14.032353 0.000000
v -1.509832 13.596066 -1.960255
vn 0.5865 0.5674 -0.5780
vn -0.7086 0.5674 0.4195
vt 0.695420 0.444286
vt 0.846278 0.474282
vt 0.695290 0.474282
vt 0.846148 0.504277
vt 0.695673 0.504387
vt 0.845894 0.444177
s 0
f 170/139/77 174/140/77 173/141/77
f 173/141/78 171/142/78 169/143/78
f 170/139/77 172/144/77 174/140/77
f 173/141/78 174/140/78 171/142/78
o Plane.021
v 0.492326 14.011575 0.229036
v -0.095753 14.011575 -0.534484
v -1.752133 13.024710 1.957764
v -2.340211 13.024710 1.194245
v 0.000000 14.939644 0.000000
v -2.244458 13.952778 1.728729
vn -0.6622 0.4241 -0.6177
vn 0.4282 0.4241 0.7980
vt 0.695420 0.328836
vt 0.880610 0.375849
vt 0.695290 0.375849
vt 0.695673 0.423034
vt 0.880481 0.422862
vt 0.880227 0.328664
s 0
f 176/145/79 180/146/79 179/147/79
f 175/148/80 180/146/80 177/149/80
f 176/145/79 178/150/79 180/146/79
f 175/148/80 179/147/80 180/146/80
o Plane.022
v 0.061364 14.283007 0.488011
v -0.248110 14.283007 -0.424691
v 2.859320 13.762062 -0.460705
v 2.549845 13.762062 -1.373407
v 0.000000 15.239162 0.000000
v 2.797955 14.718218 -0.948717
vn -0.2131 0.4423 -0.8712
vn 0.3608 0.4423 0.8211
vt 0.695420 0.241137
vt 0.880610 0.278485
vt 0.695290 0.278485
vt 0.695673 0.315971
vt 0.880481 0.315834
vt 0.880227 0.241000
s 0
f 182/151/81 185/153/81 186/152/81
f 181/154/82 183/155/82 186/152/82
f 182/151/81 186/152/81 184/156/81
f 181/154/82 186/152/82 185/153/82
o Plane.023
v -0.292880 14.104673 -0.211510
v 0.129728 14.104673 0.337173
v 1.564404 13.691305 -1.642030
v 1.987011 13.691305 -1.093348
v 0.000000 14.688635 0.000000
v 1.857283 14.275266 -1.430521
vn 0.5963 0.4966 0.6307
vn -0.4576 0.4966 -0.7376
vt 0.695196 0.147324
vt 0.858417 0.180391
vt 0.695056 0.180391
vt 0.858277 0.213459
vt 0.695471 0.213580
vt 0.858002 0.147203
s 0
f 188/157/83 192/158/83 191/159/83
f 191/159/84 189/160/84 187/161/84
f 188/157/83 190/162/83 192/158/83
f 191/159/84 192/158/84 189/160/84
o Plane.024
v -0.124136 15.201157 -0.334332
v -0.045347 15.201157 0.353739
v 2.334108 14.764870 -0.615816
v 2.412896 14.764870 0.072255
v 0.000000 15.684889 0.000000
v 2.458243 15.248602 -0.281484
vn 0.1924 0.5674 0.8006
vn 0.0064 0.5674 -0.8234
vt 0.695420 0.444286
vt 0.846278 0.474282
vt 0.695290 0.474282
vt 0.846148 0.504277
vt 0.695673 0.504387
vt 0.845894 0.444177
s 0
f 194/163/85 198/164/85 197/165/85
f 197/165/86 195/166/86 193/167/86
f 194/163/85 196/168/85 198/164/85
f 197/165/86 198/164/86 195/166/86
o Plane.025
v -0.467527 14.728733 0.152773
v 0.489959 14.728733 0.043136
v -0.803627 14.207788 -2.782471
v 0.153859 14.207788 -2.892108
v 0.000000 15.684889 0.000000
v -0.336100 15.163944 -2.935243
vn 0.8788 0.4423 -0.1791
vn -0.8966 0.4423 0.0242
vt 0.695420 0.328836
vt 0.880610 0.375849
vt 0.695290 0.375849
vt 0.695673 0.423034
vt 0.880481 0.422862
vt 0.880227 0.328664
s 0
f 200/169/87 204/170/87 203/171/87
f 199/172/88 204/170/88 201/173/88
f 200/169/87 202/174/87 204/170/87
f 199/172/88 203/171/88 204/170/88
o Plane.026
v -0.386320 15.279261 -0.304430
v 0.235702 15.279261 0.431700
v 1.870342 14.758316 -2.211285
v 2.492364 14.758316 -1.475154
v 0.000000 16.235416 0.000000
v 2.256662 15.714472 -1.906854
vn 0.6362 0.4423 0.6321
vn -0.5171 0.4423 -0.7328
vt 0.695420 0.241137
vt 0.880610 0.278485
vt 0.695290 0.278485
vt 0.695673 0.315971
vt 0.880481 0.315834
vt 0.880227 0.241000
s 0
f 206/175/89 210/176/89 209/177/89
f 205/178/90 210/176/90 207/179/90
f 206/175/89 208/180/89 210/176/89
f 205/178/90 209/177/90 210/176/90
o Plane.027
v 0.332322 15.100927 -0.141694
v -0.355750 15.100927 -0.062905
v 0.599019 14.687559 2.187418
v -0.089052 14.687559 2.266207
v 0.000000 15.684889 0.000000
v 0.266697 15.271520 2.329112
vn -0.8480 0.4966 0.1852
vn 0.8679 0.4966 -0.0112
vt 0.695196 0.147324
vt 0.858417 0.180391
vt 0.695056 0.180391
vt 0.858277 0.213459
vt 0.695471 0.213580
vt 0.858002 0.147203
s 0
f 212/181/91 216/182/91 215/183/91
f 215/183/92 213/184/92 211/185/92
f 212/181/91 214/186/91 216/182/91
f 215/183/92 216/182/92 213/184/92
o Plane.028
v -0.355694 15.565256 0.025875
v 0.302984 15.565256 -0.188118
v 0.408831 15.128969 2.379106
v 1.067508 15.128969 2.165113
v 0.000000 16.048988 0.000000
v 0.764525 15.612701 2.353231
vn 0.8082 0.5674 -0.1574
vn -0.7464 0.5674 0.3477
vt 0.695420 0.444286
vt 0.846278 0.474282
vt 0.695290 0.474282
vt 0.846148 0.504277
vt 0.695673 0.504387
vt 0.845894 0.444177
s 0
f 218/187/93 221/189/93 222/188/93
f 221/189/94 217/191/94 219/190/94
f 218/187/93 222/188/93 220/192/93
f 221/189/94 219/190/94 222/188/94
o Plane.029
v 0.055122 15.092833 -0.488756
v -0.242661 15.092833 0.427827
v 2.864975 14.571888 0.424120
v 2.567192 14.571888 1.340703
v 0.000000 16.048988 0.000000
v 2.809853 15.528044 0.912876
vn -0.2019 0.4423 0.8739
vn 0.3502 0.4423 -0.8257
vt 0.695420 0.328836
vt 0.880610 0.375849
vt 0.695290 0.375849
vt 0.695673 0.423034
vt 0.880481 0.422862
vt 0.880227 0.328664
s 0
f 224/193/95 228/194/95 227/195/95
f 223/196/96 228/194/96 225/197/96
f 224/193/95 226/198/95 228/194/95
f 223/196/96 227/195/96 228/194/96
o Plane.030
v -0.488756 15.092833 -0.055122
v 0.427827 15.092833 0.242661
v 0.424120 14.571888 -2.864975
v 1.340703 14.571888 -2.567192
v 0.000000 16.048988 0.000000
v 0.912876 15.528044 -2.809853
vn 0.8739 0.4423 0.2019
vn -0.8257 0.4423 -0.3502
vt 0.695420 0.241137
vt 0.880610 0.278485
vt 0.695290 0.278485
vt 0.695673 0.315971
vt 0.880481 0.315834
vt 0.880227 0.241000
s 0
f 230/199/97 234/200/97 233/201/97
f 229/202/98 234/200/98 231/203/98
f 230/199/97 232/204/97 234/200/97
f 229/202/98 233/201/98 234/200/98
o Plane.031
v -0.009067 15.465027 0.361155
v 0.204926 15.465027 -0.297523
v -2.238683 15.051659 -0.363211
v -2.024689 15.051659 -1.021889
v 0.000000 16.048988 0.000000
v -2.229615 15.635619 -0.724365
vn 0.1835 0.4966 -0.8483
vn -0.3501 0.4966 0.7942
vt 0.695196 0.147324
vt 0.858417 0.180391
vt 0.695056 0.180391
vt 0.858277 0.213459
vt 0.695471 0.213580
vt 0.858002 0.147203
s 0
f 236/205/99 240/206/99 239/207/99
f 239/207/100 237/208/100 235/209/100
f 236/205/99 238/210/99 240/206/99
f 239/207/100 240/206/100 237/208/100
o Plane.032
v -0.229193 16.226120 -0.273237
v 0.076067 16.226120 0.348427
v 1.991800 15.789832 -1.363826
v 2.297060 15.789832 -0.742162
v 0.000000 16.709852 0.000000
v 2.220993 16.273565 -1.090589
vn 0.4501 0.5674 0.6895
vn -0.2704 0.5674 -0.7777
vt 0.695420 0.444286
vt 0.846278 0.474282
vt 0.695290 0.474282
vt 0.846148 0.504277
vt 0.695673 0.504387
vt 0.845894 0.444177
s 0
f 242/211/101 246/212/101 245/213/101
f 245/213/102 243/214/102 241/215/102
f 242/211/101 244/216/101 246/212/101
f 245/213/102 246/212/102 243/214/102
o Plane.033
v -0.389081 15.753696 0.300893
v 0.475995 15.753696 -0.123892
v -1.691288 15.232752 -2.351064
v -0.826212 15.232752 -2.775848
v 0.000000 16.709852 0.000000
v -1.302207 16.188908 -2.651957
vn 0.7676 0.4423 -0.4638
vn -0.8364 0.4423 0.3238
vt 0.695420 0.328836
vt 0.880610 0.375849
vt 0.695290 0.375849
vt 0.695673 0.423034
vt 0.880481 0.422862
vt 0.880227 0.328664
s 0
f 248/217/103 252/218/103 251/219/103
f 247/220/104 252/218/104 249/221/104
f 248/217/103 250/222/103 252/218/103
f 247/220/104 251/219/104 252/218/104
o Plane.034
v 0.300893 15.753696 0.389081
v -0.123892 15.753696 -0.475995
v -2.351064 15.232752 1.691289
v -2.775848 15.232752 0.826212
v 0.000000 16.709852 0.000000
v -2.651956 16.188908 1.302207
vn -0.4638 0.4423 -0.7676
vn 0.3238 0.4423 0.8364
vt 0.695420 0.241137
vt 0.880610 0.278485
vt 0.695290 0.278485
vt 0.695673 0.315971
vt 0.880481 0.315834
vt 0.880227 0.241000
s 0
f 254/223/105 258/224/105 257/225/105
f 253/226/106 258/224/106 255/227/106
f 254/223/105 256/228/105 258/224/105
f 253/226/106 257/225/106 258/224/106
o Plane.035
v 0.214706 16.126871 -0.292506
v -0.343155 16.126871 0.117910
v 1.601626 15.691784 1.592677
v 1.043766 15.691784 2.003093
v 0.000000 16.709852 0.000000
v 1.386921 16.274765 1.885183
vn -0.6410 0.4958 0.5860
vn 0.7502 0.4958 -0.4375
vt 0.695196 0.147324
vt 0.858417 0.180391
vt 0.695056 0.180391
vt 0.858277 0.213459
vt 0.695471 0.213580
vt 0.858002 0.147203
s 0
f 260/229/107 264/230/107 263/231/107
f 263/231/108 261/232/108 259/233/108
f 260/229/107 262/234/107 264/230/107
f 263/231/108 264/230/108 261/232/108
o Plane.036
v 0.286183 19.284958 0.077971
v -0.060821 19.284958 -0.290312
v -0.935773 18.830854 1.229323
v -1.282776 18.830854 0.861040
v 0.000000 19.857361 0.000000
v -1.221956 19.403255 1.151351
vn -0.7053 0.3788 -0.5992
vn 0.5562 0.3788 0.7397
vt 0.695196 0.147324
vt 0.858417 0.180391
vt 0.695056 0.180391
vt 0.858277 0.213459
vt 0.695471 0.213580
vt 0.858002 0.147203
s 0
f 266/235/109 270/236/109 269/237/109
f 269/237/110 267/238/110 265/239/110
f 266/235/109 268/240/109 270/236/109
f 269/237/110 270/236/110 267/238/110
o Plane.037
v -0.087640 18.514523 0.420378
v 0.424844 18.514523 -0.062495
v -1.518440 17.842834 -1.098164
v -1.005956 17.842834 -1.581037
v 0.000000 19.442581 0.000000
v -1.430800 18.770891 -1.518542
vn 0.6108 0.3281 -0.7206
vn -0.7557 0.3281 0.5669
vt 0.695420 0.241137
vt 0.880610 0.278485
vt 0.695290 0.278485
vt 0.695673 0.315971
vt 0.880481 0.315834
vt 0.880227 0.241000
s 0
f 272/241/111 276/242/111 275/243/111
f 271/244/112 276/242/112 273/245/112
f 272/241/111 274/246/111 276/242/111
f 271/244/112 275/243/112 276/242/112
o Plane.038
v -0.326506 18.489651 -0.176088
v 0.156367 18.489651 0.336396
v 1.244552 18.109035 -1.656369
v 1.727425 18.109035 -1.143885
v 0.000000 19.442581 0.000000
v 1.571058 19.061966 -1.480281
vn 0.6873 0.3395 0.6422
vn -0.6002 0.3395 -0.7243
vt 0.695420 0.328836
vt 0.880610 0.375849
vt 0.695290 0.375849
vt 0.695673 0.423034
vt 0.880481 0.422862
vt 0.880227 0.328664
s 0
f 278/247/113 282/248/113 281/249/113
f 277/250/114 282/248/114 279/251/114
f 278/247/113 280/252/113 282/248/113
f 277/250/114 281/249/114 282/248/114
o Plane.039
v -0.065831 18.958849 -0.258752
v -0.104266 18.958849 0.245794
v 1.736738 18.640085 -0.121435
v 1.698302 18.640085 0.383111
v 0.000000 19.442581 0.000000
v 1.802569 19.123819 0.137317
vn 0.0118 0.4509 0.8925
vn 0.1468 0.4509 -0.8804
vt 0.695420 0.444286
vt 0.846278 0.474282
vt 0.695290 0.474282
vt 0.846148 0.504277
vt 0.695673 0.504387
vt 0.845894 0.444177
s 0
f 284/253/115 288/254/115 287/255/115
f 287/255/116 285/256/116 283/257/116
f 284/253/115 286/258/115 288/254/115
f 287/255/116 288/254/116 285/256/116
o Plane.040
v -0.254512 18.197756 0.099182
v 0.251439 18.197756 0.106731
v -0.228957 17.895739 -1.613456
v 0.276995 17.895739 -1.605907
v 0.000000 18.781717 0.000000
v 0.025555 18.479700 -1.712638
vn 0.9207 0.3865 -0.0544
vn -0.9187 0.3865 -0.0819
vt 0.695196 0.147324
vt 0.858417 0.180391
vt 0.695056 0.180391
vt 0.858277 0.213459
vt 0.695471 0.213580
vt 0.858002 0.147203
s 0
f 290/259/117 294/260/117 293/261/117
f 293/261/118 291/262/118 289/263/118
f 290/259/117 292/264/117 294/260/117
f 293/261/118 294/260/118 291/262/118
o Plane.041
v -0.111617 17.828787 -0.353772
v -0.122122 17.828787 0.350284
v 2.046721 17.448172 -0.321566
v 2.036215 17.448172 0.382491
v 0.000000 18.781717 0.000000
v 2.158337 18.401102 0.032206
vn 0.0458 0.3395 0.9395
vn 0.0739 0.3395 -0.9377
vt 0.695420 0.241137
vt 0.880610 0.278485
vt 0.695290 0.278485
vt 0.695673 0.315971
vt 0.880481 0.315834
vt 0.880227 0.241000
s 0
f 296/265/119 300/266/119 299/267/119
f 295/268/120 300/266/120 297/269/120
f 296/265/119 298/270/119 300/266/119
f 295/268/120 299/267/120 300/266/120
o Plane.042
v 0.353772 17.027330 -0.111616
v -0.350284 17.027330 -0.122122
v 0.321565 16.646715 2.046721
v -0.382491 16.646715 2.036215
v 0.000000 17.980261 0.000000
v -0.032207 17.599646 2.158337
vn -0.9395 0.3395 0.0458
vn 0.9377 0.3395 0.0739
vt 0.695420 0.328836
vt 0.880610 0.375849
vt 0.695290 0.375849
vt 0.695673 0.423034
vt 0.880481 0.422862
vt 0.880227 0.328664
s 0
f 302/271/121 306/272/121 305/273/121
f 301/274/122 306/272/122 303/275/122
f 302/271/121 304/276/121 306/272/121
f 301/274/122 305/273/122 306/272/122
o Plane.043
v -0.081511 18.297985 0.254248
v -0.089060 18.297985 -0.251703
v 1.726079 17.979221 0.227276
v 1.718530 17.979221 -0.278675
v 0.000000 18.781717 0.000000
v 1.807590 18.462955 -0.026972
vn 0.0662 0.4509 -0.8901
vn 0.0928 0.4509 0.8877
vt 0.695420 0.444286
vt 0.846278 0.474282
vt 0.695290 0.474282
vt 0.846148 0.504277
vt 0.695673 0.504387
vt 0.845894 0.444177
s 0
f 308/277/123 311/279/123 312/278/123
f 311/279/124 307/281/124 309/280/124
f 308/277/123 312/278/123 310/282/123
f 311/279/124 309/280/124 312/278/124
o Plane.044
v 0.244587 17.858452 0.207689
v 0.141896 17.858452 -0.287789
v -1.361385 17.279606 0.540535
v -1.464076 17.279606 0.045057
v 0.000000 18.417618 0.000000
v -1.605972 17.838772 0.332846
vn -0.3146 0.3701 -0.8741
vn 0.0588 0.3701 0.9271
vt 0.695196 0.147324
vt 0.858417 0.180391
vt 0.695056 0.180391
vt 0.858277 0.213459
vt 0.695471 0.213580
vt 0.858002 0.147203
s 0
f 314/283/125 318/284/125 317/285/125
f 317/285/126 315/286/126 313/287/126
f 314/283/125 316/288/125 318/284/125
f 317/285/126 318/284/126 315/286/126
o Plane.045
v -0.091588 18.015215 -0.359478
v 0.288393 18.015215 0.233329
v -1.908882 17.634600 0.805382
v -1.528901 17.634600 1.398189
v 0.000000 18.968145 0.000000
v -1.817294 18.587530 1.164860
vn 0.4562 0.3395 0.8226
vn -0.5570 0.3395 -0.7580
vt 0.695420 0.241137
vt 0.880610 0.278485
vt 0.695290 0.278485
vt 0.695673 0.315971
vt 0.880481 0.315834
vt 0.880227 0.241000
s 0
f 320/289/127 323/291/127 324/290/127
f 319/292/128 321/293/128 324/290/128
f 320/289/127 324/290/127 322/294/127
f 319/292/128 324/290/128 323/291/128
o Plane.046
v -0.248420 17.464687 -0.275501
v 0.034330 17.464687 0.369370
v 1.728481 17.084072 -1.142289
v 2.011230 17.084072 -0.497418
v 0.000000 18.417618 0.000000
v 1.976900 18.037003 -0.866788
vn 0.4318 0.3395 0.8357
vn -0.3221 0.3395 -0.8837
vt 0.695420 0.328836
vt 0.880610 0.375849
vt 0.695290 0.375849
vt 0.695673 0.423034
vt 0.880481 0.422862
vt 0.880227 0.328664
s 0
f 326/295/129 330/296/129 329/297/129
f 325/298/130 330/296/130 327/299/130
f 326/295/129 328/300/129 330/296/129
f 325/298/130 329/297/130 330/296/130
o Plane.047
v 0.197459 17.933886 -0.179712
v -0.265960 17.933886 0.023479
v 0.923389 17.615122 1.475926
v 0.459971 17.615122 1.679116
v 0.000000 18.417618 0.000000
v 0.725931 18.098856 1.655637
vn -0.7822 0.4509 0.4298
vn 0.8461 0.4509 -0.2842
vt 0.695420 0.444286
vt 0.846278 0.474282
vt 0.695290 0.474282
vt 0.846148 0.504277
vt 0.695673 0.504387
vt 0.845894 0.444177
s 0
f 332/301/131 336/302/131 335/303/131
f 335/303/132 333/304/132 331/305/132
f 332/301/131 334/306/131 336/302/131
f 335/303/132 336/302/132 333/304/132
o Plane.048
v 0.061943 16.837402 -0.266038
v -0.230114 16.837402 0.147176
v 1.460668 16.535385 0.722573
v 1.168610 16.535385 1.135787
v 0.000000 17.421364 0.000000
v 1.398724 17.119347 0.988611
vn -0.4752 0.3865 0.7904
vn 0.5865 0.3865 -0.7118
vt 0.695196 0.147324
vt 0.858417 0.180391
vt 0.695056 0.180391
vt 0.858277 0.213459
vt 0.695471 0.213580
vt 0.858002 0.147203
s 0
f 338/307/133 342/308/133 341/309/133
f 341/309/134 339/310/134 337/311/134
f 338/307/133 340/312/133 342/308/133
f 341/309/134 342/308/134 339/310/134
o Plane.049
v 0.424432 16.491064 0.009476
v -0.150576 16.491064 -0.396937
v -0.783357 15.838766 1.718299
v -1.358365 15.838766 1.311886
v 0.000000 17.421364 0.000000
v -1.207789 16.769066 1.708823
vn -0.8258 0.3291 -0.4580
vn 0.7074 0.3291 0.6256
vt 0.695420 0.241137
vt 0.880610 0.278485
vt 0.695290 0.278485
vt 0.695673 0.315971
vt 0.880481 0.315834
vt 0.880227 0.241000
s 0
f 344/313/135 348/314/135 347/315/135
f 343/316/136 348/314/136 345/317/136
f 344/313/135 346/318/135 348/314/135
f 343/316/136 347/315/136 348/314/136
o Plane.050
v -0.107759 16.468433 0.354966
v 0.298655 16.468433 -0.220042
v -1.870488 16.087818 -0.890924
v -1.464074 16.087818 -1.465932
v 0.000000 17.421364 0.000000
v -1.762729 17.040749 -1.245891
vn 0.4929 0.3395 -0.8011
vn -0.5907 0.3395 0.7320
vt 0.695420 0.328836
vt 0.880610 0.375849
vt 0.695290 0.375849
vt 0.695673 0.423034
vt 0.880481 0.422862
vt 0.880227 0.328664
s 0
f 350/319/137 354/320/137 353/321/137
f 349/322/138 354/320/138 351/323/138
f 350/319/137 352/324/137 354/320/137
f 349/322/138 353/321/138 354/320/138
o Plane.051
v -0.255838 16.937632 -0.076375
v 0.157376 16.937632 0.215682
v 0.787584 16.618868 -1.552648
v 1.200798 16.618868 -1.260590
v 0.000000 17.421364 0.000000
v 1.043422 17.102602 -1.476273
vn 0.7719 0.4509 0.4482
vn -0.6801 0.4509 -0.5780
vt 0.695420 0.444286
vt 0.846278 0.474282
vt 0.695290 0.474282
vt 0.846148 0.504277
vt 0.695673 0.504387
vt 0.845894 0.444177
s 0
f 356/325/139 360/326/139 359/327/139
f 359/327/140 357/328/140 355/329/140
f 356/325/139 358/330/139 360/326/139
f 359/327/140 360/326/140 357/328/140
o Plane.052
v 0.025563 17.171785 0.265768
v 0.140563 17.171785 -0.226998
v -1.734923 16.853022 -0.145087
v -1.619923 16.853022 -0.637853
v 0.000000 17.655518 0.000000
v -1.760486 17.336756 -0.410855
vn 0.1246 0.4509 -0.8838
vn -0.2795 0.4509 0.8477
vt 0.695420 0.444286
vt 0.846278 0.474282
vt 0.695290 0.474282
vt 0.846148 0.504277
vt 0.695673 0.504387
vt 0.845894 0.444177
s 0
f 362/331/141 366/332/141 365/333/141
f 365/333/142 363/334/142 361/335/142
f 362/331/141 364/336/141 366/332/141
f 365/333/142 366/332/142 363/334/142
o Plane.053
v -0.355163 17.247295 0.018642
v 0.335689 17.247295 -0.117478
v -0.778885 17.247295 -2.131889
v -0.088032 17.247295 -2.268009
v 0.000000 18.206045 0.000000
v -0.423722 18.206045 -2.150531
vn 0.9210 0.3447 -0.1815
vn -0.9210 0.3447 0.1815
vt 0.695420 0.328836
vt 0.880610 0.375849
vt 0.695290 0.375849
vt 0.695673 0.423034
vt 0.880481 0.422862
vt 0.880227 0.328664
s 0
f 368/337/143 372/338/143 371/339/143
f 367/340/144 372/338/144 369/341/144
f 368/337/143 370/342/143 372/338/143
f 367/340/144 371/339/144 372/338/144
o Plane.054
v 0.181366 16.696768 -0.305933
v -0.088310 16.696768 0.344514
v 2.206118 16.696768 0.533533
v 1.936442 16.696768 1.183979
v 0.000000 17.655518 0.000000
v 2.024752 17.655518 0.839465
vn -0.3595 0.3447 0.8671
vn 0.3595 0.3447 -0.8671
vt 0.695420 0.241137
vt 0.880610 0.278485
vt 0.695290 0.278485
vt 0.695673 0.315971
vt 0.880481 0.315834
vt 0.880227 0.241000
s 0
f 374/343/145 378/344/145 377/345/145
f 373/346/146 378/344/146 375/347/146
f 374/343/145 376/348/145 378/344/145
f 373/346/146 377/345/146 378/344/146
o Plane.055
v -0.233713 17.062548 -0.096898
v 0.233713 17.062548 0.096898
v 0.432402 17.062548 -1.703536
v 0.899827 17.062548 -1.509741
v 0.000000 17.655518 0.000000
v 0.666115 17.655518 -1.606639
vn 0.8496 0.3924 0.3523
vn -0.8496 0.3924 -0.3523
vt 0.695196 0.147324
vt 0.858417 0.180391
vt 0.695056 0.180391
vt 0.858277 0.213459
vt 0.695471 0.213580
vt 0.858002 0.147203
s 0
f 380/349/147 384/350/147 383/351/147
f 383/351/148 381/352/148 379/353/148
f 380/349/147 382/354/147 384/350/147
f 383/351/148 384/350/148 381/352/148
o Plane.056
v -0.018843 19.603422 0.288460
v -0.234224 19.603422 -0.169420
v 1.573512 19.080841 -0.460564
v 1.358131 19.080841 -0.918444
v 0.000000 20.074293 0.000000
v 1.592355 19.551712 -0.749024
vn -0.2604 0.4390 -0.8599
vn 0.4964 0.4390 0.7490
vt 0.695420 0.444286
vt 0.846278 0.474282
vt 0.695290 0.474282
vt 0.846148 0.504277
vt 0.695673 0.504387
vt 0.845894 0.444177
s 0
f 386/355/149 389/357/149 390/356/149
f 389/357/150 385/359/150 387/358/150
f 386/355/149 390/356/149 388/360/149
f 389/357/150 387/358/150 390/356/150
o Plane.057
v -0.321206 18.813437 0.206494
v 0.372327 18.813437 0.084767
v -0.692030 18.362719 -1.906245
v 0.001503 18.362719 -2.027973
v 0.000000 19.762054 0.000000
v -0.370824 19.311338 -2.112739
vn 0.9123 0.3373 -0.2321
vn -0.9368 0.3373 0.0925
vt 0.695420 0.328836
vt 0.880610 0.375849
vt 0.695290 0.375849
vt 0.695673 0.423034
vt 0.880481 0.422862
vt 0.880227 0.328664
s 0
f 392/361/151 396/362/151 395/363/151
f 391/364/152 396/362/152 393/365/152
f 392/361/151 394/366/151 396/362/151
f 391/364/152 395/363/152 396/362/152
o Plane.058
v 0.262726 18.345881 -0.261894
v -0.367190 18.345881 0.052769
v 1.227346 17.965265 1.669159
v 0.597430 17.965265 1.983821
v 0.000000 19.298811 0.000000
v 0.964620 18.918196 1.931052
vn -0.8130 0.3395 0.4730
vn 0.8665 0.3395 -0.3659
vt 0.695420 0.241137
vt 0.880610 0.278485
vt 0.695290 0.278485
vt 0.695673 0.315971
vt 0.880481 0.315834
vt 0.880227 0.241000
s 0
f 398/367/153 402/368/153 401/369/153
f 397/370/154 402/368/154 399/371/154
f 398/367/153 400/372/153 402/368/153
f 397/370/154 401/369/154 402/368/154
o Plane.059
v 0.139290 19.404480 -0.245613
v -0.279799 19.404480 0.037949
v 1.091918 19.036764 1.162322
v 0.672829 19.036764 1.445884
v 0.000000 19.984045 0.000000
v 0.952628 19.616329 1.407935
vn -0.7153 0.3836 0.5842
vn 0.8083 0.3836 -0.4467
vt 0.695196 0.147324
vt 0.858417 0.180391
vt 0.695056 0.180391
vt 0.858277 0.213459
vt 0.695471 0.213580
vt 0.858002 0.147203
s 0
f 404/373/155 408/374/155 407/375/155
f 407/375/156 405/376/156 403/377/156
f 404/373/155 406/378/155 408/374/155
f 407/375/156 408/374/156 405/376/156
o Plane.060
v -0.292491 18.311428 0.044872
v 0.174935 18.311428 0.238668
v 0.350926 17.861277 -1.507021
v 0.818352 17.861277 -1.313226
v 0.000000 18.884193 0.000000
v 0.643417 18.434042 -1.551894
vn 0.8885 0.3791 0.2584
vn -0.8107 0.3791 -0.4461
vt 0.695196 0.147324
vt 0.858417 0.180391
vt 0.695056 0.180391
vt 0.858277 0.213459
vt 0.695471 0.213580
vt 0.858002 0.147203
s 0
f 410/379/157 414/380/157 413/381/157
f 413/381/158 411/382/158 409/383/158
f 410/379/157 412/384/157 414/380/157
f 413/381/158 414/380/158 411/382/158
o Plane.061
v -0.049442 17.945076 -0.401626
v -0.319118 17.945076 0.248820
v 1.906318 17.377777 0.409235
v 1.636642 17.377777 1.059682
v 0.000000 18.884193 0.000000
v 1.955761 18.316895 0.810861
vn -0.2771 0.3330 0.9013
vn 0.4419 0.3330 -0.8330
vt 0.695420 0.241137
vt 0.880610 0.278485
vt 0.695290 0.278485
vt 0.695673 0.315971
vt 0.880481 0.315834
vt 0.880227 0.241000
s 0
f 416/385/159 420/386/159 419/387/159
f 415/388/160 420/386/160 417/389/160
f 416/385/159 418/390/159 420/386/159
f 415/388/160 419/387/160 420/386/160
o Plane.062
v 0.401626 17.945076 -0.049442
v -0.248820 17.945076 -0.319118
v -0.409235 17.377777 1.906318
v -1.059682 17.377777 1.636642
v 0.000000 18.884193 0.000000
v -0.810862 18.316895 1.955760
vn -0.9013 0.3330 -0.2771
vn 0.8330 0.3330 0.4419
vt 0.695420 0.328836
vt 0.880610 0.375849
vt 0.695290 0.375849
vt 0.695673 0.423034
vt 0.880481 0.422862
vt 0.880227 0.328664
s 0
f 422/391/161 426/392/161 425/393/161
f 421/394/162 426/392/162 423/395/162
f 422/391/161 424/396/161 426/392/161
f 421/394/162 425/393/162 426/392/162
o Plane.063
v 0.020540 18.409735 0.282403
v 0.214335 18.409735 -0.185023
v -1.617395 17.934628 -0.396687
v -1.423600 17.934628 -0.864113
v 0.000000 18.884193 0.000000
v -1.637935 18.409084 -0.679089
vn 0.2310 0.4423 -0.8666
vn -0.4500 0.4423 0.7758
vt 0.695420 0.444286
vt 0.846278 0.474282
vt 0.695290 0.474282
vt 0.846148 0.504277
vt 0.695673 0.504387
vt 0.845894 0.444177
s 0
f 428/397/163 432/398/163 431/399/163
f 431/399/164 429/400/164 427/401/164
f 428/397/163 430/402/163 432/398/163
f 431/399/164 432/398/164 429/400/164
o Plane.064
v 0.275992 17.648878 0.063258
v -0.113960 17.648878 -0.259203
v -0.853963 17.173771 1.429711
v -1.243915 17.173771 1.107250
v 0.000000 18.123337 0.000000
v -1.129955 17.648228 1.366453
vn -0.7606 0.4423 -0.4752
vn 0.6096 0.4423 0.6579
vt 0.695420 0.444286
vt 0.846278 0.474282
vt 0.695290 0.474282
vt 0.846148 0.504277
vt 0.695673 0.504387
vt 0.845894 0.444177
s 0
f 434/403/165 438/404/165 437/405/165
f 437/405/166 435/406/166 433/407/166
f 434/403/165 436/408/165 438/404/165
f 437/405/166 438/404/166 435/406/166
o Plane.065
v 0.070624 17.184219 -0.398448
v -0.378097 17.184219 0.144190
v 1.702225 16.616920 0.950765
v 1.253504 16.616920 1.493402
v 0.000000 18.123337 0.000000
v 1.631601 17.556038 1.349212
vn -0.5295 0.3330 0.7803
vn 0.6670 0.3330 -0.6666
vt 0.695420 0.328836
vt 0.880610 0.375849
vt 0.695290 0.375849
vt 0.695673 0.423034
vt 0.880481 0.422862
vt 0.880227 0.328664
s 0
f 440/409/167 444/410/167 443/411/167
f 439/412/168 444/410/168 441/413/168
f 440/409/167 442/414/167 444/410/167
f 439/412/168 443/411/168 444/410/168
o Plane.066
v -0.398448 17.184219 -0.070624
v 0.144190 17.184219 0.378097
v 0.950764 16.616920 -1.702225
v 1.493402 16.616920 -1.253505
v 0.000000 18.123337 0.000000
v 1.349211 17.556038 -1.631602
vn 0.7803 0.3330 0.5295
vn -0.6666 0.3330 -0.6670
vt 0.695420 0.241137
vt 0.880610 0.278485
vt 0.695290 0.278485
vt 0.695673 0.315971
vt 0.880481 0.315834
vt 0.880227 0.241000
s 0
f 446/415/169 450/416/169 449/417/169
f 445/418/170 450/416/170 447/419/170
f 446/415/169 448/420/169 450/416/169
f 445/418/170 449/417/170 450/416/170
o Plane.067
v -0.042958 17.550571 0.292778
v 0.279503 17.550571 -0.097174
v -1.337632 17.100420 -0.777820
v -1.015171 17.100420 -1.167772
v 0.000000 18.123337 0.000000
v -1.294674 17.673185 -1.070598
vn 0.5079 0.3791 -0.7735
vn -0.6644 0.3791 0.6441
vt 0.695196 0.147324
vt 0.858417 0.180391
vt 0.695056 0.180391
vt 0.858277 0.213459
vt 0.695471 0.213580
vt 0.858002 0.147203
s 0
f 452/421/171 456/422/171 455/423/171
f 455/423/172 453/424/172 451/425/172
f 452/421/171 454/426/171 456/422/171
f 455/423/172 456/422/172 453/424/172
o Plane.068
v 0.169774 16.849283 -0.242366
v -0.293386 16.849283 -0.038586
v 0.846340 16.399132 1.295365
v 0.383180 16.399132 1.499145
v 0.000000 17.422049 0.000000
v 0.676567 16.971897 1.537731
vn -0.8010 0.3791 0.4634
vn 0.8828 0.3791 -0.2774
vt 0.695196 0.147324
vt 0.858417 0.180391
vt 0.695056 0.180391
vt 0.858277 0.213459
vt 0.695471 0.213580
vt 0.858002 0.147203
s 0
f 458/427/173 462/428/173 461/429/173
f 461/429/174 459/430/174 457/431/174
f 458/427/173 460/432/173 462/428/173
f 461/429/174 462/428/174 459/430/174
o Plane.069
v 0.294404 16.482931 0.277623
v 0.086852 16.482931 -0.395228
v -1.728722 15.915631 0.901689
v -1.936274 15.915631 0.228839
v 0.000000 17.422049 0.000000
v -2.023125 16.854750 0.624066
vn -0.3619 0.3330 -0.8707
vn 0.1914 0.3330 0.9233
vt 0.695420 0.241137
vt 0.880610 0.278485
vt 0.695290 0.278485
vt 0.695673 0.315971
vt 0.880481 0.315834
vt 0.880227 0.241000
s 0
f 464/433/175 468/434/175 467/435/175
f 463/436/176 468/434/176 465/437/176
f 464/433/175 466/438/175 468/434/175
f 463/436/176 467/435/176 468/434/176
o Plane.070
v 0.277623 16.482931 0.294404
v -0.395228 16.482931 0.086852
v 0.901689 15.915631 -1.728722
v 0.228839 15.915631 -1.936274
v 0.000000 17.422049 0.000000
v 0.624066 16.854750 -2.023125
vn -0.8707 0.3330 -0.3619
vn 0.9233 0.3330 0.1914
vt 0.695420 0.328836
vt 0.880610 0.375849
vt 0.695290 0.375849
vt 0.695673 0.423034
vt 0.880481 0.422862
vt 0.880227 0.328664
s 0
f 470/439/177 473/441/177 474/440/177
f 469/442/178 471/443/178 474/440/178
f 470/439/177 474/440/177 472/444/177
f 469/442/178 474/440/178 473/441/178
o Plane.141
v -0.041427 12.098206 0.376497
v 0.306760 12.098206 -0.222181
v -2.029090 11.482088 -0.779514
v -1.680903 11.482088 -1.378192
v 0.000000 12.670971 0.000000
v -1.987662 12.054853 -1.156011
vn 0.3213 0.4871 -0.8121
vn -0.5470 0.4871 0.6808
vt 0.695196 0.147324
vt 0.858417 0.180391
vt 0.695056 0.180391
vt 0.858277 0.213459
vt 0.695471 0.213580
vt 0.858002 0.147203
s 0
f 476/445/179 480/446/179 479/447/179
f 479/447/180 477/448/180 475/449/180
f 476/445/179 478/450/179 480/446/179
f 479/447/180 480/446/180 477/448/180
o Plane.142
v -0.498452 11.298191 0.129254
v 0.289239 11.298191 -0.426031
v 1.171178 10.521734 2.497682
v 1.958870 10.521734 1.942397
v 0.000000 12.242115 0.000000
v 1.669631 11.465658 2.368427
vn 0.7972 0.4338 -0.4198
vn -0.6633 0.4338 0.6098
vt 0.695420 0.241137
vt 0.880610 0.278485
vt 0.695290 0.278485
vt 0.695673 0.315971
vt 0.880481 0.315834
vt 0.880227 0.241000
s 0
f 482/451/181 485/453/181 486/452/181
f 481/454/182 483/455/182 486/452/182
f 482/451/181 486/452/181 484/456/181
f 481/454/182 486/452/182 485/453/182
o Plane.143
v 0.053986 11.619075 -0.588840
v 0.538507 11.619075 0.244250
v -2.296340 10.351220 0.778096
v -1.811819 10.351220 1.611187
v 0.000000 12.517132 0.000000
v -2.350325 11.249277 1.366937
vn 0.2851 0.4070 0.8678
vn -0.6133 0.4070 -0.6770
vt 0.695420 0.328836
vt 0.880610 0.375849
vt 0.695290 0.375849
vt 0.695673 0.423034
vt 0.880481 0.422862
vt 0.880227 0.328664
s 0
f 488/457/183 491/459/183 492/458/183
f 487/460/184 489/461/184 492/458/184
f 488/457/183 492/458/183 490/462/183
f 487/460/184 492/458/184 491/459/184
o Plane.144
v -0.266745 11.492146 -0.254797
v 0.038515 11.492146 0.366867
v 1.911664 10.841869 -1.324476
v 2.216924 10.841869 -0.702812
v 0.000000 11.966604 0.000000
v 2.178409 11.316327 -1.069679
vn 0.4941 0.5566 0.6679
vn -0.2264 0.5566 -0.7994
vt 0.695420 0.444286
vt 0.846278 0.474282
vt 0.695290 0.474282
vt 0.846148 0.504277
vt 0.695673 0.504387
vt 0.845894 0.444177
s 0
f 494/463/185 498/464/185 497/465/185
f 497/465/186 495/466/186 493/467/186
f 494/463/185 496/468/185 498/464/185
f 497/465/186 498/464/186 495/466/186
o Plane.145
v 0.038965 10.732976 0.376759
v 0.252959 10.732976 -0.281918
v -2.147901 10.116858 -0.333718
v -1.933908 10.116858 -0.992395
v 0.000000 11.305740 0.000000
v -2.186867 10.689623 -0.710477
vn 0.1427 0.4871 -0.8616
vn -0.3910 0.4871 0.7810
vt 0.695196 0.147324
vt 0.858417 0.180391
vt 0.695056 0.180391
vt 0.858277 0.213459
vt 0.695471 0.213580
vt 0.858002 0.147203
s 0
f 500/469/187 504/470/187 503/471/187
f 503/471/188 501/472/188 499/473/188
f 500/469/187 502/474/187 504/470/187
f 503/471/188 504/470/188 501/472/188
o Plane.147
v -0.395462 10.345944 -0.280277
v 0.325981 10.345943 0.358722
v 1.577808 9.968000 -2.508138
v 2.299251 9.968000 -1.869139
v 0.000000 11.305740 0.000000
v 1.973270 10.927797 -2.227861
vn 0.7064 0.4455 0.5501
vn -0.6313 0.4455 -0.6348
vt 0.695420 0.328836
vt 0.880610 0.375849
vt 0.695290 0.375849
vt 0.695673 0.423034
vt 0.880481 0.422862
vt 0.880227 0.328664
s 0
f 506/475/189 510/476/189 509/477/189
f 505/478/190 510/476/190 507/479/190
f 506/475/189 508/480/189 510/476/189
f 505/478/190 509/477/190 510/476/190
o Plane.148
v 0.366313 10.829345 -0.006812
v -0.292364 10.829345 -0.220805
v -0.386615 10.217258 2.310727
v -1.045293 10.217258 2.096734
v 0.000000 11.305740 0.000000
v -0.752929 10.693654 2.317539
vn -0.8207 0.5588 -0.1190
vn 0.7339 0.5588 0.3860
vt 0.695420 0.444286
vt 0.846278 0.474282
vt 0.695290 0.474282
vt 0.846148 0.504277
vt 0.695673 0.504387
vt 0.845894 0.444177
s 0
f 512/481/191 516/482/191 515/483/191
f 515/483/192 513/484/192 511/485/192
f 512/481/191 514/486/191 516/482/191
f 515/483/192 516/482/192 513/484/192
o Plane.149
v 0.326576 10.368876 -0.191870
v -0.361495 10.368876 -0.113081
v 0.588160 9.752758 2.092586
v -0.099911 9.752758 2.171374
v 0.000000 10.941641 0.000000
v 0.261584 10.325523 2.284455
vn -0.8431 0.4871 0.2279
vn 0.8728 0.4871 0.0314
vt 0.695196 0.147324
vt 0.858417 0.180391
vt 0.695056 0.180391
vt 0.858277 0.213459
vt 0.695471 0.213580
vt 0.858002 0.147203
s 0
f 518/487/193 522/488/193 521/489/193
f 521/489/194 519/490/194 517/491/194
f 518/487/193 520/492/193 522/488/193
f 521/489/194 522/488/194 519/490/194
o Plane.150
v 0.235193 9.667635 0.458089
v 0.125556 9.667635 -0.499397
v -2.643772 8.891178 0.787745
v -2.753409 8.891178 -0.169740
v 0.000000 10.611559 0.000000
v -2.878965 9.835102 0.329656
vn -0.2171 0.4338 -0.8745
vn -0.0138 0.4338 0.9009
vt 0.695420 0.241137
vt 0.880610 0.278485
vt 0.695290 0.278485
vt 0.695673 0.315971
vt 0.880481 0.315834
vt 0.880227 0.241000
s 0
f 524/493/195 528/494/195 527/495/195
f 523/496/196 528/494/196 525/497/196
f 524/493/195 526/498/195 528/494/195
f 523/496/196 527/495/196 528/494/196
o Plane.151
v -0.458089 9.784760 0.235193
v 0.499397 9.784760 0.125557
v -0.787745 9.008303 -2.643772
v 0.169741 9.008303 -2.753409
v 0.000000 10.728684 0.000000
v -0.329656 9.952228 -2.878965
vn 0.8745 0.4338 -0.2171
vn -0.9009 0.4338 -0.0138
vt 0.695420 0.328836
vt 0.880610 0.375849
vt 0.695290 0.375849
vt 0.695673 0.423034
vt 0.880481 0.422862
vt 0.880227 0.328664
s 0
f 530/499/197 534/500/197 533/501/197
f 529/502/198 534/500/198 531/503/198
f 530/499/197 532/504/197 534/500/197
f 529/502/198 533/501/198 534/500/198
o Plane.152
v 0.027040 9.975452 -0.367890
v -0.258659 9.975452 0.263002
v 2.237788 9.325175 0.633246
v 1.952088 9.325175 1.264139
v 0.000000 10.449910 0.000000
v 2.210747 9.799633 1.001137
vn -0.2013 0.5566 0.8060
vn 0.4730 0.5566 -0.6830
vt 0.695420 0.444286
vt 0.846278 0.474282
vt 0.695290 0.474282
vt 0.846148 0.504277
vt 0.695673 0.504387
vt 0.845894 0.444177
s 0
f 536/505/199 540/506/199 539/507/199
f 539/507/200 537/508/200 535/509/200
f 536/505/199 538/510/199 540/506/199
f 539/507/200 540/506/200 537/508/200
o Plane.154
v 0.410446 9.241194 -0.394919
v -0.533357 9.241194 -0.199892
v 0.971203 8.091681 2.318782
v 0.027400 8.091681 2.513809
v 0.000000 10.153185 0.000000
v 0.560757 9.003672 2.713701
vn -0.8402 0.4148 0.3493
vn 0.9098 0.4148 -0.0123
vt 0.695420 0.241137
vt 0.880610 0.278485
vt 0.695290 0.278485
vt 0.695673 0.315971
vt 0.880481 0.315834
vt 0.880227 0.241000
s 0
f 542/511/201 546/512/201 545/513/201
f 541/514/202 546/512/202 543/515/202
f 542/511/201 544/516/201 546/512/201
f 541/514/202 545/513/202 546/512/202
o Plane.156
v -0.384770 9.483814 0.009376
v 0.245518 9.483814 0.296407
v 0.593717 8.624497 -2.139269
v 1.224005 8.624497 -1.852238
v 0.000000 9.945387 0.000000
v 0.978487 9.086069 -2.148645
vn 0.8255 0.5414 0.1594
vn -0.6621 0.5414 -0.5181
vt 0.695420 0.444286
vt 0.846278 0.474282
vt 0.695290 0.474282
vt 0.846148 0.504277
vt 0.695673 0.504387
vt 0.845894 0.444177
s 0
f 548/517/203 552/518/203 551/519/203
f 551/519/204 549/520/204 547/521/204
f 548/517/203 550/522/203 552/518/203
f 551/519/204 552/518/204 549/520/204
o Plane.157
v 0.401688 6.598132 -0.096731
v -0.251077 6.598132 -0.328132
v -0.344194 5.445284 2.007346
v -0.996959 5.445284 1.775945
v 0.000000 7.034566 0.000000
v -0.745882 5.881718 2.104077
vn -0.8587 0.5120 -0.0239
vn 0.6820 0.5120 0.5223
vt 0.695420 0.444286
vt 0.846278 0.474282
vt 0.695290 0.474282
vt 0.846148 0.504277
vt 0.695673 0.504387
vt 0.845894 0.444177
s 0
f 554/523/205 558/524/205 557/525/205
f 557/525/206 555/526/206 553/527/206
f 554/523/205 556/528/205 558/524/205
f 557/525/206 558/524/206 555/526/206
o Plane.161
v -0.282311 13.309122 0.261604
v 0.380208 13.309122 0.059815
v -0.970206 12.449804 -1.996916
v -0.307687 12.449804 -2.198705
v 0.000000 13.770695 0.000000
v -0.687895 12.911377 -2.258520
vn 0.7244 0.5414 -0.4267
vn -0.8393 0.5414 0.0496
vt 0.695420 0.444286
vt 0.846278 0.474282
vt 0.695290 0.474282
vt 0.846148 0.504277
vt 0.695673 0.504387
vt 0.845894 0.444177
s 0
f 560/529/207 564/530/207 563/531/207
f 563/531/208 561/532/208 559/533/208
f 560/529/207 562/534/207 564/530/207
f 563/531/208 564/530/208 561/532/208
o Plane.162
v -0.468236 12.872638 0.361113
v -0.187439 12.872638 -0.560816
v 2.132722 11.604782 1.153302
v 2.413519 11.604782 0.231373
v 0.000000 13.770695 0.000000
v 2.600958 12.502840 0.792189
vn 0.4419 0.4070 -0.7994
vn -0.0788 0.4070 0.9100
vt 0.695420 0.328836
vt 0.880610 0.375849
vt 0.695290 0.375849
vt 0.695673 0.423034
vt 0.880481 0.422862
vt 0.880227 0.328664
s 0
f 566/535/209 569/537/209 570/536/209
f 565/538/210 567/539/210 570/536/210
f 566/535/209 570/536/209 568/540/209
f 565/538/210 570/536/210 569/537/210
o Plane.163
v 0.432237 12.814539 -0.234716
v -0.489691 12.814539 0.046083
v 1.293046 12.293594 2.591523
v 0.371117 12.293594 2.872321
v 0.000000 13.770695 0.000000
v 0.860808 13.249750 2.826239
vn -0.8320 0.4423 0.3349
vn 0.8774 0.4423 -0.1857
vt 0.695420 0.241137
vt 0.880610 0.278485
vt 0.695290 0.278485
vt 0.695673 0.315971
vt 0.880481 0.315834
vt 0.880227 0.241000
s 0
f 572/541/211 576/542/211 575/543/211
f 571/544/212 576/542/212 573/545/212
f 572/541/211 574/546/211 576/542/211
f 571/544/212 575/543/212 576/542/212
o Plane.164
v -0.224892 13.450857 -0.282734
v 0.033870 13.450857 0.359677
v 1.949659 13.037489 -1.158642
v 2.208422 13.037489 -0.516231
v 0.000000 14.034819 0.000000
v 2.174551 13.621449 -0.875908
vn 0.4039 0.4966 0.7683
vn -0.2414 0.4966 -0.8337
vt 0.695196 0.147324
vt 0.858417 0.180391
vt 0.695056 0.180391
vt 0.858277 0.213459
vt 0.695471 0.213580
vt 0.858002 0.147203
s 0
f 578/547/213 582/548/213 581/549/213
f 581/549/214 579/550/214 577/551/214
f 578/547/213 580/552/213 582/548/213
f 581/549/214 582/548/214 579/550/214
o Plane.165
v -0.308173 3.718879 0.105418
v 0.258952 3.718879 0.197554
v -0.002275 3.207742 -1.777486
v 0.564850 3.207742 -1.685351
v 0.000000 4.291644 0.000000
v 0.305898 3.780507 -1.882904
vn 0.9064 0.4211 0.0329
vn -0.8702 0.4211 -0.2557
vt 0.695196 0.147324
vt 0.858417 0.180391
vt 0.695056 0.180391
vt 0.858277 0.213459
vt 0.695471 0.213580
vt 0.858002 0.147203
s 0
f 584/553/215 588/554/215 587/555/215
f 587/555/216 585/556/216 583/557/216
f 584/553/215 586/558/215 588/554/215
f 587/555/216 588/554/216 585/556/216
o Plane.168
v 0.169114 3.139898 -0.264750
v -0.309672 3.139898 0.052872
v 1.282115 2.600422 1.412990
v 0.803329 2.600422 1.730613
v 0.000000 3.614356 0.000000
v 1.113001 3.074880 1.677741
vn -0.6471 0.4877 0.5861
vn 0.7915 0.4877 -0.3683
vt 0.695420 0.444286
vt 0.846278 0.474282
vt 0.695290 0.474282
vt 0.846148 0.504277
vt 0.695673 0.504387
vt 0.845894 0.444177
s 0
f 590/559/217 594/560/217 593/561/217
f 593/561/218 591/562/218 589/563/218
f 590/559/217 592/564/217 594/560/217
f 593/561/218 594/560/218 591/562/218
o Plane.169
v 0.105211 12.445611 -0.353561
v -0.308989 12.445611 0.201496
v 2.050218 11.795334 1.097862
v 1.636018 11.795334 1.652919
v 0.000000 12.920069 0.000000
v 1.945007 12.269792 1.451423
vn -0.3693 0.5566 0.7442
vn 0.6083 0.5566 -0.5658
vt 0.695420 0.444286
vt 0.846278 0.474282
vt 0.695290 0.474282
vt 0.846148 0.504277
vt 0.695673 0.504387
vt 0.845894 0.444177
s 0
f 596/565/219 600/566/219 599/567/219
f 599/567/220 597/568/220 595/569/220
f 596/565/219 598/570/219 600/566/219
f 599/567/220 600/566/220 597/568/220
o Plane.170
v 0.481976 12.514441 0.098082
v -0.404718 12.514441 -0.279506
v -0.675551 11.993496 2.816308
v -1.562245 11.993496 2.438719
v 0.000000 13.470596 0.000000
v -1.157527 12.949652 2.718225
vn -0.8526 0.4423 -0.2783
vn 0.7915 0.4423 0.4218
vt 0.695420 0.328836
vt 0.880610 0.375849
vt 0.695290 0.375849
vt 0.695673 0.423034
vt 0.880481 0.422862
vt 0.880227 0.328664
s 0
f 602/571/221 606/572/221 605/573/221
f 601/574/222 606/572/222 603/575/222
f 602/571/221 604/576/221 606/572/221
f 601/574/222 605/573/222 606/572/222
o Plane.171
v 0.498979 12.149399 0.229037
v -0.462437 12.149399 0.295955
v 0.303234 11.123339 -2.583237
v -0.658182 11.123339 -2.516319
v 0.000000 13.073908 0.000000
v -0.195744 12.047848 -2.812274
vn -0.9020 0.4220 -0.0912
vn 0.8807 0.4220 -0.2153
vt 0.695420 0.241137
vt 0.880610 0.278485
vt 0.695290 0.278485
vt 0.695673 0.315971
vt 0.880481 0.315834
vt 0.880227 0.241000
s 0
f 608/577/223 611/579/223 612/578/223
f 607/580/224 609/581/224 612/578/224
f 608/577/223 612/578/223 610/582/223
f 607/580/224 612/578/224 611/579/224
o Plane.172
v 0.206328 12.336107 0.296552
v -0.010772 12.336107 -0.361108
v -2.019843 11.922739 1.031435
v -2.236943 11.922739 0.373774
v 0.000000 12.920069 0.000000
v -2.226171 12.506700 0.734882
vn -0.3538 0.4966 -0.7926
vn 0.1875 0.4966 0.8475
vt 0.695196 0.147324
vt 0.858417 0.180391
vt 0.695056 0.180391
vt 0.858277 0.213459
vt 0.695471 0.213580
vt 0.858002 0.147203
s 0
f 614/583/225 618/584/225 617/585/225
f 617/585/226 615/586/226 613/587/226
f 614/583/225 616/588/225 618/584/225
f 617/585/226 618/584/226 615/586/226
o Plane.173
v -0.253328 8.759211 -0.328731
v -0.112448 8.725404 0.348513
v 1.958735 8.033169 -0.825125
v 2.099614 7.999362 -0.147881
v 0.000000 9.306282 0.000000
v 2.212062 8.580240 -0.496394
vn 0.3312 0.4375 0.8360
vn -0.0201 0.5218 -0.8528
vt 0.695196 0.147324
vt 0.858417 0.180391
vt 0.695056 0.180391
vt 0.858277 0.213459
vt 0.695471 0.213580
vt 0.858002 0.147203
s 0
f 620/589/227 624/590/227 623/591/227
f 623/591/228 621/592/228 619/593/228
f 620/589/227 622/594/227 624/590/227
f 623/591/228 624/590/228 621/592/228
o Plane.174
v 0.387588 6.920363 0.329590
v -0.107429 6.920363 -0.497306
v -2.111142 6.200100 1.825441
v -2.606159 6.200100 0.998545
v 0.000000 7.867622 0.000000
v -2.498730 7.147359 1.495851
vn -0.5514 0.4359 -0.7112
vn 0.3664 0.4359 0.8220
vt 0.695420 0.241137
vt 0.880610 0.278485
vt 0.695290 0.278485
vt 0.695673 0.315971
vt 0.880481 0.315834
vt 0.880227 0.241000
s 0
f 626/595/229 630/596/229 629/597/229
f 625/598/230 630/596/230 627/599/230
f 626/595/229 628/600/229 630/596/229
f 625/598/230 629/597/230 630/596/230
o Plane.158
v -0.361582 21.631544 0.932341
v -0.361581 25.131544 0.932341
v 0.361581 21.631544 -0.932341
v 0.361582 25.131544 -0.932341
vn -0.9323 -0.0000 -0.3616
vt 0.846333 0.440035
vt 0.694350 0.507048
vt 0.694350 0.440035
vt 0.846333 0.507048
s 0
f 632/601/231 633/602/231 631/603/231
f 632/601/231 634/604/231 633/602/231
o Plane.159
v 1.000000 21.631544 0.000000
v 1.000000 25.131544 0.000000
v -1.000000 21.631544 -0.000000
v -1.000000 25.131544 -0.000000
vn -0.0000 -0.0000 1.0000
vt 0.857061 0.144464
vt 0.695123 0.211476
vt 0.695123 0.144464
vt 0.857061 0.211476
s 0
f 636/605/232 637/606/232 635/607/232
f 636/605/232 638/608/232 637/606/232
o Plane.160
v 0.648784 21.631544 0.760972
v 0.648784 25.131544 0.760972
v -0.648784 21.631544 -0.760972
v -0.648784 25.131544 -0.760972
vn -0.7610 -0.0000 0.6488
vt 0.846333 0.440035
vt 0.694350 0.507048
vt 0.694350 0.440035
vt 0.846333 0.507048
s 0
f 640/609/233 641/610/233 639/611/233
f 640/609/233 642/612/233 641/610/233
o Plane.166
v 1.304997 18.306063 0.661778
v 1.304997 23.427277 0.661778
v -1.304997 18.306063 -0.661778
v -1.304997 23.427277 -0.661778
vn -0.4523 -0.0000 0.8919
vt 0.880583 0.330560
vt 0.694350 0.419975
vt 0.694350 0.330560
vt 0.880583 0.419975
s 0
f 644/613/234 645/614/234 643/615/234
f 644/613/234 646/616/234 645/614/234
o Plane.167
v 1.350256 18.306063 -0.563715
v 1.350256 23.427277 -0.563715
v -1.350256 18.306063 0.563715
v -1.350256 23.427277 0.563715
vn 0.3853 -0.0000 0.9228
vt 0.885811 0.243572
vt 0.695123 0.310585
vt 0.695123 0.243572
vt 0.885811 0.310585
s 0
f 648/617/235 649/618/235 647/619/235
f 648/617/235 650/620/235 649/618/235
o Plane.175
v 0.037346 18.306063 1.462727
v 0.037347 23.427277 1.462727
v -0.037347 18.306063 -1.462727
v -0.037346 23.427277 -1.462727
vn -0.9997 -0.0000 0.0255
vt 0.878833 0.330511
vt 0.694350 0.417354
vt 0.694350 0.330511
vt 0.878833 0.417354
s 0
f 652/621/236 653/622/236 651/623/236
f 652/621/236 654/624/236 653/622/236
